<?xml version="1.0" standalone="no"?>
<!DOCTYPE svg PUBLIC "-//W3C//DTD SVG 20010904//EN"
 "http://www.w3.org/TR/2001/REC-SVG-20010904/DTD/svg10.dtd">
<svg version="1.0" xmlns="http://www.w3.org/2000/svg"
 width="250.000000pt" height="136.000000pt" viewBox="0 0 250.000000 136.000000"
 preserveAspectRatio="xMidYMid meet">

<g transform="translate(0.000000,136.000000) scale(0.100000,-0.100000)"
fill="#000000" stroke="none">
<path d="M211 396 c-7 -8 -11 -30 -9 -48 l3 -33 75 -5 c73 -5 75 -6 78 -32 l3
-28 -70 0 c-41 0 -71 4 -71 10 0 6 -7 10 -15 10 -18 0 -20 -21 -3 -38 13 -13
145 -17 165 -4 16 10 22 52 12 80 -8 20 -15 22 -84 22 l-76 0 3 28 c3 26 6 27
66 30 49 2 64 0 68 -13 8 -21 24 -19 24 4 0 25 -19 31 -95 31 -42 0 -66 -5
-74 -14z"/>
<path d="M544 360 c35 -40 46 -60 48 -92 4 -57 28 -63 28 -8 0 36 7 50 46 93
30 34 41 53 33 56 -7 2 -30 -16 -52 -40 l-38 -44 -38 43 c-21 23 -46 42 -56
42 -12 0 -4 -14 29 -50z"/>
<path d="M841 396 c-7 -8 -11 -30 -9 -48 l3 -33 78 -3 77 -3 0 -29 0 -30 -70
0 c-40 0 -70 4 -70 10 0 6 -7 10 -15 10 -19 0 -19 -14 1 -34 22 -22 146 -22
168 0 18 18 20 47 6 75 -9 16 -22 19 -80 19 l-70 0 0 30 0 30 65 0 c51 0 65
-3 65 -15 0 -17 16 -20 25 -6 3 5 -2 17 -11 25 -21 21 -146 23 -163 2z"/>
<path d="M1125 401 c-3 -6 14 -11 37 -13 l43 -3 3 -82 c2 -65 6 -83 17 -83 12
0 15 17 15 85 l0 85 40 0 c22 0 40 5 40 10 0 13 -187 13 -195 1z"/>
<path d="M1430 315 l0 -95 90 0 c73 0 90 3 90 15 0 12 -15 15 -75 15 l-75 0 0
30 c0 29 2 30 45 30 25 0 45 5 45 10 0 6 -21 10 -46 10 -44 0 -45 1 -42 28 3
26 5 27 76 30 104 4 90 22 -18 22 l-90 0 0 -95z"/>
<path d="M1740 315 c0 -114 18 -129 22 -18 l3 76 44 -62 c24 -35 47 -59 51
-54 4 4 24 33 44 63 l36 55 0 -78 c0 -59 3 -78 13 -75 16 6 17 180 0 185 -6 2
-30 -23 -53 -56 -22 -34 -43 -61 -45 -61 -2 0 -25 27 -50 60 -25 33 -50 60
-56 60 -5 0 -9 -42 -9 -95z"/>
<path d="M2131 396 c-7 -8 -11 -30 -9 -48 l3 -33 75 -5 c73 -5 75 -6 78 -32
l3 -28 -70 0 c-41 0 -71 4 -71 10 0 6 -7 10 -15 10 -19 0 -19 -14 1 -34 22
-22 146 -22 168 0 18 18 20 47 6 75 -9 16 -22 19 -80 19 l-70 0 0 30 0 30 65
0 c51 0 65 -3 65 -15 0 -8 5 -15 10 -15 16 0 11 37 -6 44 -32 12 -141 6 -153
-8z"/>
</g>
</svg>
